<?xml version="1.0" encoding="UTF-8"?>
<svg id="Layer_2" data-name="Layer 2" xmlns="http://www.w3.org/2000/svg" viewBox="0 0 1260.1 249.87">
  <defs>
    <style>
      .cls-1 {
        fill: #fff;
      }
    </style>
  </defs>
  <g id="Layer_2-2" data-name="Layer 2">
    <g>
      <circle class="cls-1" cx="194.92" cy="101.4" r="11.74"/>
      <path class="cls-1" d="m188.92,145.5c28.18,0-40.18,47.49-40.18,47.49,0,0-69.41-47.49-41.23-47.49h81.41Z"/>
      <circle class="cls-1" cx="100.98" cy="101.4" r="11.74"/>
      <path class="cls-1" d="m148.73,192.99l2.98,4.29s3-2.08,7.45-5.35c3.34-2.45,7.51-5.58,11.91-9.04,3.3-2.6,6.72-5.37,10.01-8.2,2.47-2.12,4.87-4.26,7.1-6.38,3.34-3.18,6.29-6.28,8.55-9.27,1.13-1.5,2.1-2.98,2.86-4.55.38-.78.7-1.59.94-2.46.24-.87.41-1.8.41-2.83,0-.66-.07-1.37-.25-2.07-.15-.62-.39-1.24-.7-1.83-.55-1.04-1.34-1.94-2.22-2.62-.66-.51-1.36-.9-2.06-1.21-1.06-.46-2.14-.74-3.26-.92-1.12-.18-2.29-.25-3.54-.25h-81.41c-1.44,0-2.76.1-4.03.34-.95.18-1.88.44-2.79.85-.68.3-1.36.69-2,1.19-.48.37-.93.81-1.34,1.3-.61.74-1.08,1.62-1.37,2.51-.3.9-.42,1.8-.42,2.64,0,.82.11,1.58.28,2.29.33,1.38.86,2.59,1.5,3.77.6,1.1,1.31,2.17,2.11,3.25,1.5,2.01,3.31,4.05,5.36,6.15,3.59,3.66,7.91,7.49,12.4,11.23,6.74,5.59,13.86,10.95,19.31,14.93,5.45,3.97,9.23,6.56,9.27,6.58l2.97,2.03,2.95-2.05-2.98-4.29,2.95-4.31-.03-.02c-.33-.23-3.48-2.39-7.99-5.66-3.38-2.45-7.54-5.53-11.86-8.89-3.24-2.52-6.56-5.19-9.72-7.86-2.36-2-4.63-4-6.68-5.93-1.54-1.45-2.96-2.85-4.2-4.17-1.87-1.98-3.34-3.8-4.23-5.19-.44-.69-.73-1.26-.87-1.62-.07-.18-.1-.3-.11-.35v-.02s-.33.06-.33.06l.33-.03v-.03s-.33.06-.33.06l.33-.03-1.07.1h1.07s0-.1,0-.1l-1.07.1h1.07s-1.94,0-1.94,0l1.88.47c.05-.2.06-.37.06-.47h-1.94l1.88.47-2.42-.61,2.2,1.18c.1-.19.18-.4.22-.57l-2.42-.61,2.2,1.18-2.03-1.09,1.41,1.84c.17-.13.44-.4.62-.75l-2.03-1.09,1.41,1.84-.81-1.06.67,1.16s.08-.05.15-.1l-.81-1.06.67,1.16-.33-.57.3.58.03-.02-.33-.57.3.58-.07-.14.06.14h0s-.07-.14-.07-.14l.06.14s.24-.1.68-.17c.44-.07,1.09-.13,1.92-.13h81.41c.95,0,1.67.07,2.11.16.33.06.51.13.53.14h0s.48-1,.48-1l-.7.85c.13.11.22.15.22.15l.48-1-.7.85,1.49-1.79-2.12.94c.15.36.43.69.63.85l1.49-1.79-2.12.94,1.87-.83h-2.07c0,.14.03.48.2.83l1.87-.83h-2.07.78l-.78-.1s0,.04,0,.1h.78l-.78-.1h.09s-.09,0-.09,0h0s.09.01.09.01h-.09s-.08.35-.34.89c-.25.51-.64,1.17-1.17,1.93-.99,1.42-2.44,3.15-4.2,5.01-3.08,3.26-7.1,6.93-11.36,10.55-6.39,5.43-13.34,10.76-18.67,14.71-2.67,1.98-4.93,3.61-6.52,4.75-.8.57-1.42,1.01-1.85,1.31-.21.15-.38.26-.49.34-.05.04-.1.07-.12.09l-.03.02h0s2.98,4.29,2.98,4.29l2.95-4.31-2.95,4.31Z"/>
      <path class="cls-1" d="m148.73,244.13v5.22s0,0,0,0v-5.22s0,0,0,0l-2.42,4.62c.42.22.66.29.85.36.19.06.32.09.42.11.21.05.32.06.41.08.18.02.26.03.33.04.13.01.2.01.27.02.13,0,.24,0,.38.01.52.01,1.38.02,2.62.04,4.61.05,14.26.1,26.32.15,18.09.08,41.62.16,61.65.22,20.03.06,36.56.1,40.69.1,1.47,0,2.92-.17,4.3-.52,1.21-.31,2.38-.77,3.45-1.36,1.89-1.04,3.5-2.49,4.74-4.16.94-1.25,1.69-2.62,2.3-4.06.91-2.16,1.5-4.49,1.88-6.97.38-2.48.54-5.12.54-7.9,0-5.39-.62-11.35-1.66-17.73-1.83-11.15-4.98-23.58-8.68-36.01-5.55-18.64-12.32-37.27-17.71-51.27-5.39-14-9.4-23.36-9.42-23.41l-4.8,2.06,3.34,4.01c12.43-10.35,21.59-21.09,27.7-31.7,3.05-5.31,5.34-10.58,6.87-15.76,1.53-5.18,2.29-10.26,2.29-15.15,0-4.53-.66-8.91-1.98-13.01-1.32-4.1-3.29-7.93-5.87-11.37-3.5-4.65-8.51-8.5-14.56-11.23C266.94,1.6,259.82,0,252.06,0c-8,0-16.69,1.7-25.56,5.62-8.87,3.91-17.91,10.02-26.66,18.77l3.69,3.69,2.82-4.39c-.25-.16-6.05-3.86-16.09-7.55-10.04-3.69-24.34-7.36-41.53-7.37-17.19,0-31.49,3.68-41.53,7.37-10.04,3.69-15.84,7.39-16.09,7.55l2.82,4.39,3.69-3.69c-8.75-8.75-17.79-14.86-26.66-18.77C62.1,1.7,53.41,0,45.41,0c-7.77,0-14.88,1.6-20.93,4.32-6.05,2.73-11.06,6.58-14.56,11.23-2.58,3.44-4.55,7.27-5.87,11.37-1.32,4.1-1.98,8.48-1.98,13.01,0,4.89.77,9.97,2.29,15.15,2.29,7.77,6.29,15.75,12.02,23.73,5.74,7.98,13.22,15.96,22.54,23.73l3.34-4.01-4.8-2.06c-.03.07-9.33,21.77-18.66,48.56-4.67,13.4-9.34,28.07-12.87,42-1.76,6.97-3.24,13.75-4.29,20.13-1.04,6.38-1.66,12.34-1.66,17.73,0,3.24.22,6.27.74,9.09.39,2.12.96,4.12,1.77,5.99.61,1.4,1.36,2.74,2.29,3.95,1.39,1.83,3.22,3.39,5.37,4.42,1.07.52,2.22.9,3.4,1.15,1.18.25,2.4.37,3.65.37,43.86,0,87.7-.31,131.53-.51l5.2-.02v-5.21h-5.22v5.22s0-5.22,0-5.22h-5.22v.02h5.22l-.02-5.22c-43.85.19-87.67.51-131.49.51-.69,0-1.25-.08-1.71-.19-.4-.1-.73-.24-1.02-.4-.51-.28-.95-.66-1.43-1.28-.35-.46-.7-1.07-1.03-1.84-.49-1.15-.9-2.67-1.18-4.5-.28-1.83-.42-3.96-.42-6.33,0-4.59.54-10.06,1.52-16.04,1.72-10.49,4.77-22.57,8.39-34.72,5.43-18.24,12.12-36.66,17.45-50.5,2.66-6.92,4.99-12.69,6.64-16.73.83-2.02,1.49-3.6,1.94-4.68.23-.54.4-.95.52-1.23.06-.14.1-.24.13-.31.03-.07.04-.1.04-.1l1.53-3.58-2.99-2.49c-11.64-9.69-19.97-19.55-25.33-28.88-2.68-4.67-4.63-9.2-5.9-13.5-1.27-4.31-1.87-8.4-1.87-12.2,0-3.52.51-6.8,1.48-9.82.97-3.02,2.4-5.79,4.28-8.3,2.24-3,5.84-5.89,10.49-7.98,4.65-2.09,10.32-3.4,16.65-3.4,6.53,0,13.76,1.38,21.35,4.73,7.59,3.35,15.55,8.67,23.49,16.6l2.97,2.97,3.54-2.27-2.78-4.33,2.78,4.33h0s-2.78-4.33-2.78-4.33l2.78,4.33-1.44-2.25,1.44,2.25h0s-1.44-2.25-1.44-2.25l1.44,2.25h0c.27-.17,5.61-3.51,14.72-6.79,9.1-3.28,21.95-6.48,37.25-6.48,15.69,0,28.79,3.37,37.93,6.73,4.57,1.68,8.14,3.35,10.54,4.59,1.2.62,2.11,1.12,2.7,1.47.3.17.51.3.65.38.07.04.11.07.14.09l.02.02h0s1.38-2.17,1.38-2.17l-1.39,2.16h0s1.38-2.16,1.38-2.16l-1.39,2.16,2.08-3.25-2.08,3.25h0s2.08-3.25,2.08-3.25l-2.08,3.25h0s2.78-4.33,2.78-4.33l-2.78,4.33h0s2.78-4.33,2.78-4.33l-2.78,4.33,3.54,2.27,2.97-2.97c7.94-7.93,15.9-13.26,23.49-16.6,7.59-3.35,14.82-4.73,21.35-4.73,6.33,0,12,1.31,16.65,3.4,4.65,2.09,8.25,4.97,10.49,7.98,1.88,2.51,3.31,5.28,4.28,8.3.97,3.02,1.48,6.3,1.48,9.82,0,3.8-.6,7.89-1.87,12.2-1.91,6.46-5.34,13.43-10.49,20.59-5.15,7.17-12.02,14.53-20.75,21.8l-2.99,2.49,1.53,3.58.02.06c.53,1.24,9.75,22.92,18.8,49.06,4.53,13.07,9.01,27.26,12.34,40.52,1.66,6.63,3.04,13.02,3.99,18.9.95,5.88,1.48,11.25,1.48,15.76,0,2.75-.2,5.18-.57,7.18-.28,1.5-.66,2.76-1.08,3.75-.32.74-.67,1.32-1.01,1.77-.26.34-.51.6-.77.81-.39.32-.78.54-1.3.72-.52.17-1.17.3-2.05.3-6.02,0-38.91-.08-70.27-.19-15.68-.05-30.99-.11-42.36-.17-5.69-.03-10.4-.06-13.68-.08-1.64-.01-2.92-.03-3.78-.04-.43,0-.75-.01-.94-.02h-.11s-.03,0-.03,0l-.15,3.32.29-3.31c-.12-.01-.14,0-.14-.01l-.15,3.32.29-3.31-.43,4.78.56-4.76c-.06,0-.1-.01-.14-.01l-.43,4.78.56-4.76-.59,5,.78-4.98c-.08-.01-.14-.02-.19-.03l-.59,5,.78-4.98-.8,5.08,1.05-5.03c-.11-.02-.19-.04-.25-.05l-.8,5.08,1.05-5.03-1.06,5.08,1.38-5c-.14-.04-.24-.06-.33-.08l-1.06,5.08,1.38-5-1.39,5.01,1.8-4.88c-.17-.06-.3-.1-.41-.13l-1.39,5.01,1.8-4.88-1.8,4.89,2.3-4.68c-.2-.1-.36-.16-.49-.21l-1.8,4.89,2.3-4.68c-.71-.35-1.5-.53-2.29-.53h0s-5.23,0-5.23,0v5.23h5.22Z"/>
      <path class="cls-1" d="m153.95,244.13v-51.14h-10.44v51.14h10.44Z"/>
    </g>
    <g>
      <path class="cls-1" d="m530.04,146.41c0,18.93-5.35,34.18-16.04,45.77-10.7,11.59-24.62,17.38-41.76,17.38-5.63,0-10.97-1-16.05-2.98-5.08-1.99-9.74-4.9-13.99-8.74-3.02,2.88-5.93,5.28-8.74,7.2-2.81,1.92-4.56,2.88-5.25,2.88-.28,0-.48-.14-.62-.41-.14-.27-.21-.75-.21-1.44V69.89c0-3.43-.14-6.2-.41-8.33-.28-2.12-.69-3.73-1.23-4.83-.69-1.37-1.68-2.23-2.98-2.57-1.3-.34-4.22-.1-8.74.72-.82.14-1.23-.1-1.23-.72s.41-.99,1.23-1.13c4.66-.82,10.7-2.6,18.1-5.35,7.41-2.74,13.09-5.21,17.07-7.41.41-.27,1.13-.21,2.16.21,1.03.41,1.54.82,1.54,1.23v82.08c5.48-6.99,11.45-12.27,17.9-15.84,6.44-3.56,13.37-5.35,20.78-5.35,11.52,0,20.81,4.08,27.87,12.24,7.06,8.16,10.59,18.69,10.59,31.58Zm-77.14-20.16v61.92c3.15,5.76,6.92,10.29,11.31,13.58,4.39,3.29,9.12,4.94,14.19,4.94,8.36,0,14.67-4.11,18.93-12.34,4.25-8.23,6.38-20.43,6.38-36.62,0-13.99-2.44-25.06-7.3-33.22-4.87-8.16-11.56-12.24-20.06-12.24-4.39,0-8.54,1.17-12.45,3.5-3.91,2.33-7.58,5.83-11.01,10.49Z"/>
      <path class="cls-1" d="m626.72,199.69c-5.21,3.43-10.39,5.93-15.53,7.51-5.14,1.58-10.73,2.37-16.76,2.37-15.63,0-28.15-4.49-37.54-13.47-9.4-8.98-14.09-20.95-14.09-35.9s6.2-28.46,18.62-40.11c12.41-11.65,26.71-17.49,42.89-17.49,11.79,0,20.98,2.4,27.57,7.2,6.58,4.8,9.74,10.97,9.46,18.51-.28,3.29-1.51,5.45-3.7,6.48-2.2,1.03-6.17,1.54-11.93,1.54h-58.83c-.28,1.51-.45,3.09-.51,4.73-.07,1.65-.1,3.36-.1,5.14,0,13.17,4.25,23.76,12.75,31.78,8.5,8.02,19.61,12.03,33.32,12.03,11.52,0,21.43-3.77,29.73-11.31,8.3-7.54,14.71-18.58,19.23-33.12.27-.82.62-1.2,1.03-1.13.41.07.48.58.21,1.54-3.29,11.25-8.16,21.7-14.6,31.37-6.45,9.67-13.51,17.11-21.19,22.32Zm-11.52-76.11c0-5.07-1.72-9.26-5.14-12.55-3.43-3.29-8.02-4.94-13.78-4.94-7.68,0-14.09,2.57-19.23,7.71-5.14,5.14-8.47,12.24-9.98,21.29,6.17-.13,12.14-.27,17.9-.41,5.76-.13,12.14-.34,19.13-.62,1.78-.13,3.43-.44,4.94-.93,1.51-.48,2.6-.99,3.29-1.54.96-.82,1.68-1.88,2.16-3.19.48-1.3.72-2.91.72-4.83Z"/>
      <path class="cls-1" d="m667.04,207.3c-5.21.14-8.95.21-11.21.21h-5.25c-.82,0-1.23-.31-1.23-.93s.41-.93,1.23-.93c3.84,0,6.34-.58,7.51-1.75s1.95-3.19,2.37-6.07c.27-1.65.48-3.67.62-6.07.14-2.4.21-5.31.21-8.74v-49.16c0-2.33-.75-4.76-2.26-7.3-1.51-2.54-3.91-5.31-7.2-8.33-.28-.27-.41-.51-.41-.72s.13-.38.41-.51c2.47-.96,6.82-3.15,13.06-6.58,6.24-3.43,10.18-5.9,11.83-7.41.27-.27.48-.38.62-.31.13.07.34.24.62.51,2.19,2.06,4.18,6.1,5.97,12.14,1.78,6.04,2.67,12.07,2.67,18.1v4.73c.82-5.76,2.19-10.83,4.11-15.22,1.92-4.39,4.39-8.16,7.41-11.31,2.47-3.15,5.28-5.45,8.43-6.89,3.15-1.44,6.72-2.16,10.7-2.16,3.29,0,5.93.48,7.92,1.44,1.99.96,2.98,2.26,2.98,3.91,0,3.02-1.54,6.79-4.63,11.31-3.09,4.53-6.21,6.79-9.36,6.79h-10.08c-3.84,0-6.79.31-8.85.93s-3.63,1.61-4.73,2.98c-1.37,1.92-2.33,4.73-2.88,8.43-.55,3.7-.82,9.46-.82,17.28v49.99h14.6c.82,0,1.23.31,1.23.93s-.41.93-1.23.93h-2.06c-1.1,0-3.43-.07-6.99-.21-5.76,0-9.74-.03-11.93-.1-2.19-.07-3.63-.1-4.32-.1h-2.37c-1.17,0-3.39.07-6.69.2Z"/>
      <path class="cls-1" d="m797.87,178.71c-3.84,8.37-9.53,15.63-17.07,21.81-7.54,6.17-15.22,9.26-23.04,9.26-7.41,0-13.54-2.2-18.41-6.58-4.87-4.39-7.3-9.8-7.3-16.25,0-7.68,4.04-14.67,12.14-20.98,8.09-6.31,21.46-13.09,40.11-20.37l14.81-5.76c-.14-13.03-1.51-22.22-4.11-27.56-2.61-5.35-7.06-8.02-13.37-8.02-2.61,0-5.01.55-7.2,1.65-2.19,1.1-4.05,2.75-5.55,4.94-.96,1.37-1.85,2.98-2.67,4.83s-1.92,4.77-3.29,8.74c-.82,2.2-1.41,3.81-1.75,4.83-.34,1.03-.72,1.89-1.13,2.57-1.1,2.47-2.71,4.25-4.83,5.35-2.13,1.1-5.18,1.65-9.15,1.65-3.7,0-6.62-.72-8.74-2.16-2.13-1.44-3.19-3.32-3.19-5.66s.79-4.7,2.37-7.1c1.57-2.4,3.87-4.63,6.89-6.69,5.62-4.11,12.41-7.58,20.37-10.39,7.95-2.81,15.08-4.22,21.39-4.22,13.17,0,23,3.09,29.52,9.26,6.51,6.17,9.77,15.5,9.77,27.98,0,2.33-.04,5.11-.1,8.33-.07,3.22-.24,8.33-.52,15.33-.14,6.04-.24,10.36-.31,12.96-.07,2.61-.1,4.8-.1,6.58,0,5.62.38,9.57,1.13,11.83.75,2.26,2.02,3.39,3.81,3.39,1.65,0,3.5-1.27,5.55-3.81,2.06-2.54,3.84-5.59,5.35-9.15.41-.82,1.1-1.03,2.06-.62.96.41,1.1,1.17.41,2.26-3.57,5.9-8.2,11.14-13.88,15.74-5.69,4.6-11.08,6.89-16.15,6.89s-8.71-1.37-10.9-4.11c-2.19-2.74-3.29-7.13-3.29-13.17,0-2.06.03-4.39.1-6.99.07-2.6.17-4.8.31-6.58Zm-40.94-1.23c0,5.35,1.61,9.7,4.83,13.06,3.22,3.36,7.44,5.11,12.65,5.25,4.66.14,9.15-1.88,13.47-6.07,4.32-4.18,7.71-9.22,10.18-15.12.27-9.6.51-17.07.72-22.42s.31-8.64.31-9.87v-.82l-14.19,6.17c-9.87,4.11-17.01,8.5-21.39,13.17-4.39,4.66-6.58,10.22-6.58,16.66Z"/>
      <path class="cls-1" d="m856.29,207.3c-5.9.14-9.81.21-11.73.21h-3.7c-.82,0-1.24-.27-1.24-.82s.41-.82,1.24-.82c5.21,0,8.54-.99,9.98-2.98,1.44-1.99,2.43-5.79,2.98-11.42.27-2.47.48-5.48.62-9.05.13-3.56.2-8.23.2-13.99v-52.04c-.14-5.07-.2-8.57-.2-10.49v-4.11c0-6.17-.04-10.83-.1-13.99-.07-3.15-.17-5.76-.31-7.82-.41-5.21-1.34-8.71-2.78-10.49-1.44-1.78-4.7-2.67-9.77-2.67-.82,0-1.24-.31-1.24-.93s.41-.93,1.24-.93h2.78c1.57,0,4.9.07,9.98.21,7.68.14,12.92.21,15.74.21h7.71c1.24,0,3.57-.07,6.99-.21,5.48-.14,9.39-.21,11.73-.21h5.35c23.45,0,42.44,6.48,56.98,19.44,14.54,12.96,21.81,30,21.81,51.12s-7.13,38.91-21.39,52.15c-14.27,13.24-33.12,19.85-56.57,19.85-1.37,0-3.26-.03-5.66-.1-2.4-.07-6.14-.17-11.21-.31-2.88-.14-4.83-.21-5.86-.21h-2.16c-.82,0-2.67.04-5.55.1-2.88.07-8.16.17-15.84.31Zm46.7-1.85c15.77,0,27.67-5.89,35.69-17.69,8.02-11.79,12.03-29.21,12.03-52.25s-4.22-39.22-12.65-51.02c-8.43-11.79-20.67-17.69-36.72-17.69h-8.43c-4.66,0-7.61.82-8.85,2.47s-2.13,4.8-2.67,9.46c-.14,2.2-.28,4.87-.41,8.02-.14,3.16-.28,7.06-.41,11.73v76.32c0,6.99-.14,13.2-.41,18.62-.28,5.42-.69,9.15-1.23,11.21.68,0,1.61.04,2.78.1,1.16.07,3.05.17,5.66.31,4.11.14,7.27.24,9.46.31,2.19.07,4.25.1,6.17.1Z"/>
      <path class="cls-1" d="m1028.26,206.89l-37.03.62c-.82,0-1.24-.27-1.24-.82s.41-.82,1.24-.82c5.21,0,8.54-.99,9.98-2.98,1.44-1.99,2.43-5.79,2.98-11.42.13-2.33.27-5.28.41-8.85.13-3.56.27-8.3.41-14.19.14-.96.21-5.93.21-14.91v-38.98c0-6.72-.04-12.21-.1-16.46-.07-4.25-.17-7.82-.31-10.7-.28-8.23-1-13.71-2.16-16.46-1.17-2.74-4.01-4.11-8.54-4.11h-2.47c-.82,0-1.23-.31-1.23-.93s.41-.93,1.23-.93c1.1,0,2.57.04,4.42.1,1.85.07,4.76.17,8.74.31,2.74.14,4.59.21,5.55.21h7.3c3.09,0,9.77-.07,20.06-.21,19.34-.14,32.74-.24,40.22-.31,7.47-.07,11.96-.1,13.47-.1,2.47,0,4.56.07,6.27.21,1.71.14,2.84.34,3.39.62,1.92,15.22,3.77,30.38,5.55,45.46l.62,4.11c0,.69-.31,1.03-.93,1.03s-1.06-.34-1.34-1.03l-.62-4.11c-1.65-12.34-6.96-22.73-15.94-31.16-8.98-8.43-19.37-12.72-31.16-12.86h-18.1c-3.57,0-5.76.82-6.58,2.47s-1.31,5.14-1.44,10.49c-.14,1.65-.21,3.6-.21,5.86v45.98h9.67c11.11,0,19.3-2.09,24.58-6.27,5.28-4.18,7.92-10.8,7.92-19.85v-2.88c0-.82.38-1.23,1.13-1.23s1.13.41,1.13,1.23c-.28,6.72-.48,12.82-.62,18.31-.14,5.49-.21,9.67-.21,12.55,0,3.29.07,8.23.21,14.81.13,6.58.34,12.28.62,17.07,0,.69-.38,1.03-1.13,1.03s-1.13-.34-1.13-1.03v-2.47c0-9.87-2.67-17.18-8.02-21.91s-13.51-7.1-24.48-7.1h-9.67v38.47c0,9.74-.1,17.11-.31,22.11-.21,5.01-.59,8.4-1.13,10.18h14.61c5.07.14,8.67.2,10.8.2h4.83c10.97,0,21.12-4.87,30.44-14.6,9.32-9.74,14.74-20.98,16.25-33.74l.82-7.2c.14-.68.58-.96,1.34-.82.75.14,1.06.55.93,1.23l-.82,7.41c-1.92,23.59-3.16,37.51-3.7,41.76-.55,4.25-1.23,6.65-2.06,7.2-.55.41-2.61.69-6.17.82-3.57.14-11.04.21-22.42.21-4.8,0-11.04-.07-18.72-.21-7.68-.13-16.8-.27-27.36-.41Z"/>
      <path class="cls-1" d="m1218.96,207.1c-4.94.14-8.5.24-10.7.31-2.19.07-3.84.1-4.94.1-.96,0-1.58-.31-1.85-.93-.28-.62,0-.93.82-.93h4.11c2.6,0,4.35-.24,5.25-.72.89-.48,1.34-1.27,1.34-2.37,0-2.33-1.44-6.31-4.32-11.93-2.88-5.62-8.16-14.74-15.84-27.36l-12.34-20.78-14.4,19.75c-4.39,6.04-7.85,11.86-10.39,17.49-2.54,5.62-3.81,10.29-3.81,13.99,0,3.43,1.13,6.31,3.39,8.64,2.26,2.33,4.97,3.5,8.13,3.5.82,0,1.78-.07,2.88-.2,1.1-.14,2.6-.34,4.53-.62.82-.14,1.34-.21,1.54-.21h.51c.41,0,.72.14.93.41.21.28.24.62.1,1.03-.14.41-.45.72-.93.93-.48.21-1.2.31-2.16.31h-4.73c-2.47,0-7.2-.07-14.19-.21-6.45-.13-10.8-.2-13.06-.2h-5.86c-.69,0-1.92.07-3.7.2-2.88.14-5.04.21-6.48.21h-3.81c-.68,0-.99-.31-.93-.93.07-.62.45-.93,1.13-.93h.82c3.84,0,9.02-3.29,15.53-9.87,6.51-6.58,16.01-18.31,28.49-35.18l15.02-20.37-18.93-31.89c-3.7-6.31-6.72-11.35-9.05-15.12-2.33-3.77-4.32-6.96-5.97-9.57-4.39-6.72-7.85-11.21-10.39-13.47-2.54-2.26-6.14-3.39-10.8-3.39h-.62c-.96,0-1.41-.31-1.34-.93.07-.62.51-.93,1.34-.93,1.23,0,2.71.04,4.42.1,1.71.07,4.35.17,7.92.31,2.19.14,3.7.21,4.53.21h5.04c1.71,0,5.17-.07,10.39-.21,8.36-.14,14.23-.24,17.59-.31,3.36-.07,5.66-.1,6.89-.1.82,0,1.23.31,1.23.93s-.48.93-1.44.93h-3.91c-2.33,0-3.98.31-4.94.93-.96.62-1.44,1.61-1.44,2.98,0,2.06,1.3,5.73,3.91,11.01,2.6,5.28,6.79,12.79,12.55,22.52l10.9,18.1,10.7-14.6c5.07-7.13,8.88-13.44,11.42-18.93,2.54-5.48,3.81-10.15,3.81-13.99,0-2.47-.76-4.45-2.26-5.97-1.51-1.51-3.63-2.26-6.38-2.26-.41,0-.93.04-1.54.1-.62.07-1.61.17-2.98.31-.69.14-1.13.21-1.34.21h-.51c-.41,0-.72-.07-.93-.21-.2-.14-.31-.41-.31-.82.13-.41.41-.72.82-.93s1.1-.31,2.06-.31h3.7c1.92,0,5.55.07,10.9.21,5.35.14,8.98.21,10.9.21h5.55c.82,0,2.26-.07,4.32-.21,3.02-.14,5.28-.21,6.79-.21h3.7c.96,0,1.37.31,1.23.93-.14.62-.55.93-1.23.93h-.41c-2.75,0-5.73.96-8.95,2.88-3.22,1.92-6.62,4.8-10.18,8.64-3.84,3.84-8.26,8.74-13.27,14.71-5.01,5.97-9.22,11.21-12.65,15.74l-11.52,15.63,23.86,39.7c3.29,5.35,6.14,9.98,8.54,13.88,2.4,3.91,4.56,7.3,6.48,10.18,4.39,6.58,7.95,11.14,10.7,13.68,2.74,2.54,5.97,3.81,9.67,3.81h1.23c.82,0,1.23.31,1.23.93s-.41.93-1.23.93c-1.23,0-3.22-.03-5.97-.1-2.75-.07-7.48-.17-14.19-.31-3.98-.14-6.65-.21-8.02-.21h-5.04c-1.17,0-3.39.07-6.69.21Z"/>
    </g>
  </g>
</svg>